# xmcd
#
# Track frame offsets:
#	150
#	14307
#	37440
#	53160
#	69340
#	80915
#
# Disc length: 1263 seconds
#
# Revision: 1
# Processed by: cddbd v1.5.2PL0 Copyright (c) Steve Scherf et al.
# Submitted via: audiograbber 1.83.01
#
DISCID=5004ed06
DTITLE=Comstock - Comstock 2000
DYEAR=2000
DGENRE=
TTITLE0=I Like Country Music - Tomi Fujiama
TTITLE1=Dancin This Close - Larry Thomas and Star ´n´ Bars
TTITLE2=Way Back Yonder - Grant Petersen
TTITLE3=Freeway Bound - Linda Terri
TTITLE4=You Con Say It With A Country Song - Gary Mahnken
TTITLE5=This Time Love´s For Real - Bob Whitelock
EXTD=
EXTT0=
EXTT1=
EXTT2=
EXTT3=
EXTT4=
EXTT5=
PLAYORDER=
